:FULLY-SPECIFIED
:FORCE-ALL-JOINTS-BE-3DOF
:DEGREES
1223
root -0.420814 14.9132 -14.019 4.32491 5.44359 -4.17999
lfemur -52.2718 6.25736 -20.2904
ltibia 79.9106 -0 0
lfoot -18.5762 10.5382 -0.494761
ltoes -33.906 0 0
rfemur -29.4761 -3.46096 24.921
rtibia 58.9938 -0 0
rfoot -23.3309 -18.9212 3.63764
rtoes -8.78636 0 0
lowerback 15.2385 1.7458 -0.64139
upperback -2.66707 2.66639 3.69263
thorax -11.6472 1.43686 3.68855
lowerneck -4.16739 -4.75243 -8.94365
upperneck 3.67701 -6.08166 6.00982
head 2.36297 -3.0291 3.25898
lclavicle 6.62608e-16 -7.8126e-15 -6.39949e-31
lhumerus 32.6101 -32.5814 91.0777
lradius 97.8284 -0 0
lwrist 52.9895 0 0
lhand -37.7591 56.6052 -0.366671
lfingers 7.12502 -0 0
lthumb -10.7803 -43.5186 3.32119
rclavicle 6.62608e-16 -7.8126e-15 -6.39949e-31
rhumerus 1.56503 39.2524 -73.4968
rradius 115.264 -0 0
rwrist -33.6796 0 0
rhand -9.66456 -21.5013 -0.316527
rfingers 7.12502 -0 0
rthumb 16.2919 -50.6319 -0.23529
1224
root -0.434684 14.9122 -13.8971 4.4221 5.16051 -4.26994
lfemur -52.725 6.34878 -20.2762
ltibia 80.012 -0 0
lfoot -18.3353 10.3925 -0.482792
ltoes -33.9695 0 0
rfemur -29.1435 -3.50038 25.1505
rtibia 59.2129 -0 0
rfoot -23.9284 -19.2671 3.52675
rtoes -9.07464 0 0
lowerback 15.2475 1.77067 -0.54497
upperback -2.69009 2.71928 3.69999
thorax -11.6812 1.45687 3.63025
lowerneck -4.20599 -4.70266 -8.90746
upperneck 3.63863 -6.01194 5.98525
head 2.35449 -2.99341 3.25098
lclavicle -1.90022e-16 -7.91256e-15 -6.28866e-31
lhumerus 32.9931 -32.1501 91.0376
lradius 97.5997 -0 0
lwrist 53.1147 0 0
lhand -37.8583 56.7751 -0.354872
lfingers 7.12502 -0 0
lthumb -10.8965 -45.0374 3.23187
rclavicle -1.90022e-16 -7.91256e-15 -6.28866e-31
rhumerus 1.24867 39.3598 -73.648
rradius 115.371 -0 0
rwrist -34.0432 0 0
rhand -9.84357 -21.3976 -0.305654
rfingers 7.12502 -0 0
rthumb 16.1202 -50.5496 -0.227157
1225
root -0.448393 14.9113 -13.7762 4.5186 4.88028 -4.35954
lfemur -53.1729 6.44045 -20.2633
ltibia 80.1088 -0 0
lfoot -18.0949 10.2488 -0.470333
ltoes -34.0287 0 0
rfemur -28.8122 -3.54026 25.3773
rtibia 59.4268 -0 0
rfoot -24.5169 -19.6082 3.41349
rtoes -9.36113 0 0
lowerback 15.2556 1.79532 -0.449582
upperback -2.71296 2.77166 3.70719
thorax -11.7145 1.47666 3.57251
lowerneck -4.24418 -4.65341 -8.87153
upperneck 3.60122 -5.94304 5.96106
head 2.34626 -2.95813 3.24305
lclavicle -1.03618e-15 -8.01167e-15 -6.16662e-31
lhumerus 33.3712 -31.7244 90.9997
lradius 97.3739 -0 0
lwrist 53.2383 0 0
lhand -37.9558 56.943 -0.342906
lfingers 7.12502 -0 0
lthumb -11.0098 -46.5549 3.14021
rclavicle -1.03618e-15 -8.01167e-15 -6.16662e-31
rhumerus 0.933696 39.4653 -73.7999
rradius 115.475 -0 0
rwrist -34.402 0 0
rhand -10.0196 -21.2956 -0.294605
rfingers 7.12502 -0 0
rthumb 15.9513 -50.4688 -0.218891
1226
root -0.461934 14.9103 -13.6564 4.61438 4.60306 -4.44877
lfemur -53.6155 6.53231 -20.2517
ltibia 80.2009 -0 0
lfoot -17.8551 10.1072 -0.457405
ltoes -34.0834 0 0
rfemur -28.4823 -3.58053 25.6011
rtibia 59.6354 -0 0
rfoot -25.0959 -19.9442 3.29803
rtoes -9.64571 0 0
lowerback 15.2629 1.81973 -0.355273
upperback -2.73568 2.82352 3.71421
thorax -11.7471 1.49621 3.51537
lowerneck -4.28194 -4.60472 -8.83589
upperneck 3.56482 -5.87499 5.9373
head 2.33828 -2.92327 3.23521
lclavicle -1.87547e-15 -8.10986e-15 -6.03375e-31
lhumerus 33.7445 -31.3045 90.9637
lradius 97.1511 -0 0
lwrist 53.3602 0 0
lhand -38.0516 57.1088 -0.330791
lfingers 7.12502 -0 0
lthumb -11.12 -48.0707 3.04633
rclavicle -1.87547e-15 -8.10986e-15 -6.03375e-31
rhumerus 0.620317 39.5689 -73.9525
rradius 115.574 -0 0
rwrist -34.7559 0 0
rhand -10.1925 -21.1955 -0.283402
rfingers 7.12502 -0 0
rthumb 15.7854 -50.3894 -0.210509
1227
root -0.475298 14.9095 -13.5375 4.70937 4.32903 -4.53757
lfemur -54.0524 6.62431 -20.2415
ltibia 80.2882 -0 0
lfoot -17.6159 9.9677 -0.444029
ltoes -34.1335 0 0
rfemur -28.1539 -3.62109 25.8219
rtibia 59.8387 -0 0
rfoot -25.6653 -20.2751 3.18061
rtoes -9.92827 0 0
lowerback 15.2693 1.84389 -0.262086
upperback -2.75825 2.87482 3.72107
thorax -11.779 1.51553 3.45886
lowerneck -4.31924 -4.55662 -8.80055
upperneck 3.52945 -5.80786 5.91398
head 2.33057 -2.88886 3.22746
lclavicle -2.70748e-15 -8.20708e-15 -5.89047e-31
lhumerus 34.1128 -30.8906 90.9296
lradius 96.9314 -0 0
lwrist 53.4805 0 0
lhand -38.1457 57.2724 -0.318543
lfingers 7.12502 -0 0
lthumb -11.2271 -49.5847 2.95036
rclavicle -2.70748e-15 -8.20708e-15 -5.89047e-31
rhumerus 0.308741 39.6704 -74.1056
rradius 115.669 -0 0
rwrist -35.1047 0 0
rhand -10.3622 -21.0973 -0.272068
rfingers 7.12502 -0 0
rthumb 15.6226 -50.3116 -0.202028
1228
root -0.488478 14.9086 -13.4197 4.80352 4.05834 -4.6259
lfemur -54.4835 6.71641 -20.2327
ltibia 80.3705 -0 0
lfoot -17.3775 9.83045 -0.430228
ltoes -34.179 0 0
rfemur -27.8272 -3.66188 26.0397
rtibia 60.0363 -0 0
rfoot -26.2246 -20.6007 3.06142
rtoes -10.2087 0 0
lowerback 15.2749 1.8678 -0.170067
upperback -2.78066 2.92554 3.72775
thorax -11.8102 1.53461 3.40301
lowerneck -4.35609 -4.50914 -8.76553
upperneck 3.49513 -5.74168 5.89113
head 2.32313 -2.85492 3.21981
lclavicle -3.53182e-15 -8.3033e-15 -5.73724e-31
lhumerus 34.4764 -30.4829 90.8971
lradius 96.7151 -0 0
lwrist 53.5992 0 0
lhand -38.2379 57.4339 -0.306182
lfingers 7.12502 -0 0
lthumb -11.3309 -51.0966 2.85244
rclavicle -3.53182e-15 -8.3033e-15 -5.73724e-31
rhumerus -0.000823871 39.7699 -74.2592
rradius 115.76 -0 0
rwrist -35.448 0 0
rhand -10.5287 -21.0011 -0.260626
rfingers 7.12502 -0 0
rthumb 15.4629 -50.2354 -0.193466
1229
root -0.501466 14.9078 -13.303 4.89678 3.79116 -4.71372
lfemur -54.9087 6.80855 -20.2253
ltibia 80.4479 -0 0
lfoot -17.1399 9.69549 -0.416024
ltoes -34.2198 0 0
rfemur -27.5021 -3.7028 26.2543
rtibia 60.2282 -0 0
rfoot -26.7737 -20.9209 2.94068
rtoes -10.4869 0 0
lowerback 15.2795 1.89145 -0.0792608
upperback -2.80291 2.97566 3.73427
thorax -11.8405 1.55343 3.34783
lowerneck -4.39245 -4.46232 -8.73086
upperneck 3.4619 -5.67651 5.86878
head 2.31596 -2.82148 3.21227
lclavicle -4.34808e-15 -8.39845e-15 -5.57453e-31
lhumerus 34.835 -30.0818 90.8662
lradius 96.5022 -0 0
lwrist 53.7164 0 0
lhand -38.3283 57.5931 -0.293726
lfingers 7.12502 -0 0
lthumb -11.4315 -52.6063 2.75271
rclavicle -4.34808e-15 -8.39845e-15 -5.57453e-31
rhumerus -0.308168 39.8674 -74.4132
rradius 115.846 -0 0
rwrist -35.7856 0 0
rhand -10.6917 -20.9069 -0.2491
rfingers 7.12502 -0 0
rthumb 15.3064 -50.1609 -0.18484
1230
root -0.514254 14.9071 -13.1874 4.98909 3.52765 -4.80097
lfemur -55.3277 6.90069 -20.2193
ltibia 80.5202 -0 0
lfoot -16.9032 9.56291 -0.401443
ltoes -34.2558 0 0
rfemur -27.1788 -3.74379 26.4656
rtibia 60.4141 -0 0
rfoot -27.3122 -21.2355 2.81861
rtoes -10.7628 0 0
lowerback 15.2833 1.91482 0.0102885
upperback -2.82497 3.02514 3.7406
thorax -11.8701 1.57199 3.29338
lowerneck -4.4283 -4.41619 -8.69655
upperneck 3.42978 -5.61238 5.84697
head 2.30908 -2.78856 3.20485
lclavicle -5.15586e-15 -8.49249e-15 -5.40282e-31
lhumerus 35.1889 -29.6875 90.8366
lradius 96.2929 -0 0
lwrist 53.8319 0 0
lhand -38.4168 57.7499 -0.281193
lfingers 7.12502 -0 0
lthumb -11.5287 -54.1134 2.6513
rclavicle -5.15586e-15 -8.49249e-15 -5.40282e-31
rhumerus -0.613079 39.9628 -74.5675
rradius 115.928 -0 0
rwrist -36.1174 0 0
rhand -10.8513 -20.8148 -0.237513
rfingers 7.12502 -0 0
rthumb 15.1533 -50.088 -0.17617
1231
root -0.526836 14.9064 -13.0729 5.0804 3.26798 -4.88761
lfemur -55.7403 6.99278 -20.2148
ltibia 80.5874 -0 0
lfoot -16.6676 9.43277 -0.386509
ltoes -34.2868 0 0
rfemur -26.8573 -3.78476 26.6736
rtibia 60.594 -0 0
rfoot -27.8399 -21.5444 2.69542
rtoes -11.0363 0 0
lowerback 15.286 1.93791 0.0985356
upperback -2.84686 3.07397 3.74676
thorax -11.8988 1.59028 3.23967
lowerneck -4.46365 -4.3708 -8.66264
upperneck 3.3988 -5.54935 5.8257
head 2.30248 -2.75619 3.19755
lclavicle -5.95476e-15 -8.58538e-15 -5.22263e-31
lhumerus 35.5379 -29.3003 90.8082
lradius 96.0874 -0 0
lwrist 53.9459 0 0
lhand -38.5033 57.9044 -0.268602
lfingers 7.12502 -0 0
lthumb -11.6225 -55.6178 2.54835
rclavicle -5.95476e-15 -8.58538e-15 -5.22263e-31
rhumerus -0.915344 40.0561 -74.7219
rradius 116.005 -0 0
rwrist -36.4431 0 0
rhand -11.0072 -20.7249 -0.22589
rfingers 7.12502 -0 0
rthumb 15.0037 -50.017 -0.167474
1232
root -0.539203 14.9057 -12.9596 5.17065 3.01229 -4.97358
lfemur -56.1464 7.08478 -20.2117
ltibia 80.6493 -0 0
lfoot -16.433 9.30515 -0.371247
ltoes -34.3128 0 0
rfemur -26.5379 -3.82561 26.8782
rtibia 60.7676 -0 0
rfoot -28.3564 -21.8475 2.57135
rtoes -11.3072 0 0
lowerback 15.2878 1.9607 0.185436
upperback -2.86857 3.12213 3.75274
thorax -11.9268 1.60829 3.18672
lowerneck -4.49846 -4.32617 -8.62913
upperneck 3.36899 -5.48747 5.80503
head 2.29618 -2.72439 3.19038
lclavicle -6.74438e-15 -8.67704e-15 -5.03451e-31
lhumerus 35.882 -28.9203 90.7808
lradius 95.8857 -0 0
lwrist 54.0584 0 0
lhand -38.5878 58.0564 -0.255972
lfingers 7.12502 -0 0
lthumb -11.7129 -57.1193 2.44401
rclavicle -6.74438e-15 -8.67704e-15 -5.03451e-31
rhumerus -1.21475 40.1473 -74.8764
rradius 116.077 -0 0
rwrist -36.7623 0 0
rhand -11.1595 -20.6372 -0.214256
rfingers 7.12502 -0 0
rthumb 14.8575 -49.9477 -0.158771
1233
root -0.551348 14.9051 -12.8474 5.25978 2.76076 -5.05885
lfemur -56.5457 7.17662 -20.2102
ltibia 80.7059 -0 0
lfoot -16.1996 9.18012 -0.355686
ltoes -34.3338 0 0
rfemur -26.2205 -3.86627 27.0792
rtibia 60.9348 -0 0
rfoot -28.8615 -22.1447 2.44662
rtoes -11.5754 0 0
lowerback 15.2886 1.98319 0.270944
upperback -2.89009 3.16958 3.75854
thorax -11.9539 1.62602 3.13459
lowerneck -4.53272 -4.28235 -8.59606
upperneck 3.34037 -5.42679 5.78496
head 2.29017 -2.69318 3.18335
lclavicle -7.52431e-15 -8.76745e-15 -4.839e-31
lhumerus 36.2214 -28.5479 90.7544
lradius 95.6881 -0 0
lwrist 54.1693 0 0
lhand -38.6702 58.206 -0.243323
lfingers 7.12502 -0 0
lthumb -11.7999 -58.6176 2.33842
rclavicle -7.52431e-15 -8.76745e-15 -4.839e-31
rhumerus -1.51108 40.2363 -75.0309
rradius 116.144 -0 0
rwrist -37.0751 0 0
rhand -11.308 -20.5519 -0.202634
rfingers 7.12502 -0 0
rthumb 14.715 -49.8804 -0.150079
1234
root -0.563263 14.9045 -12.7364 5.34773 2.51355 -5.14335
lfemur -56.9381 7.26827 -20.2101
ltibia 80.7571 -0 0
lfoot -15.9675 9.05774 -0.339852
ltoes -34.3495 0 0
rfemur -25.9053 -3.90665 27.2767
rtibia 61.0956 -0 0
rfoot -29.355 -22.4359 2.32145
rtoes -11.8409 0 0
lowerback 15.2884 2.00539 0.355067
upperback -2.91141 3.21631 3.76416
thorax -11.9801 1.64346 3.08328
lowerneck -4.56641 -4.23937 -8.56344
upperneck 3.31297 -5.36734 5.76553
head 2.28448 -2.66259 3.17648
lclavicle -8.29415e-15 -8.85655e-15 -4.63669e-31
lhumerus 36.5559 -28.1832 90.7286
lradius 95.4947 -0 0
lwrist 54.2787 0 0
lhand -38.7505 58.353 -0.230674
lfingers 7.12502 -0 0
lthumb -11.8833 -60.1126 2.23173
rclavicle -8.29415e-15 -8.85655e-15 -4.63669e-31
rhumerus -1.80412 40.3231 -75.1852
rradius 116.206 -0 0
rwrist -37.3809 0 0
rhand -11.4526 -20.4688 -0.191049
rfingers 7.12502 -0 0
rthumb 14.5763 -49.8149 -0.141418
1235
root -0.57494 14.904 -12.6267 5.43445 2.27082 -5.22704
lfemur -57.3234 7.35967 -20.2117
ltibia 80.8027 -0 0
lfoot -15.7368 8.9381 -0.323774
ltoes -34.36 0 0
rfemur -25.5924 -3.94665 27.4706
rtibia 61.2495 -0 0
rfoot -29.8364 -22.7209 2.19608
rtoes -12.1036 0 0
lowerback 15.2872 2.02725 0.437653
upperback -2.93252 3.26228 3.7696
thorax -12.0054 1.6606 3.03283
lowerneck -4.59952 -4.19726 -8.5313
upperneck 3.28681 -5.30918 5.74676
head 2.27909 -2.63264 3.16976
lclavicle -9.05351e-15 -8.94429e-15 -4.42817e-31
lhumerus 36.8855 -27.8266 90.7035
lradius 95.3056 -0 0
lwrist 54.3867 0 0
lhand -38.8286 58.4975 -0.218045
lfingers 7.12502 -0 0
lthumb -11.9631 -61.6039 2.12409
rclavicle -9.05351e-15 -8.94429e-15 -4.42817e-31
rhumerus -2.09364 40.4077 -75.3393
rradius 116.263 -0 0
rwrist -37.6798 0 0
rhand -11.5932 -20.3883 -0.179528
rfingers 7.12502 -0 0
rthumb 14.4413 -49.7514 -0.132806
